<svg width="220" height="51" viewBox="0 0 220 51" fill="none" xmlns="http://www.w3.org/2000/svg">
<path d="M88.8039 31.468C88.9106 42.5611 80.4395 51.1863 69.2361 50.9969C65.075 50.9955 61.0409 49.5613 57.8101 46.9348L57.3191 49.76H48.043V0H58.9384V15.2224C64.0247 11.3649 71.7701 11.032 77.5212 13.4907C84.7391 16.4686 88.8862 23.756 88.8039 31.468ZM77.9085 31.4314C77.9573 27.3692 75.7739 23.585 72.0049 22.0915C65.2963 19.4801 58.3346 24.0798 58.4108 31.4314C58.3193 38.8654 65.092 43.4896 71.9317 40.8782C75.713 39.3633 77.9573 35.5393 77.9085 31.4314Z" fill="#F2F9FF"/>
<path d="M111.25 41.5317C114.79 41.5531 117.41 40.2489 118.462 36.6937C118.861 35.2577 119.045 33.7704 119.008 32.2803V13.1362H129.94V32.6316C129.94 38.4133 128.561 43.2298 124.615 46.7758C118.462 52.3468 104.044 52.3499 97.8877 46.7758C93.9387 43.2268 92.5696 38.4194 92.5635 32.6316V13.1362H103.495V32.2803C103.462 33.763 103.64 35.243 104.023 36.6754C105.035 40.2703 107.713 41.5469 111.25 41.5317Z" fill="#F2F9FF"/>
<path d="M176.257 31.468C176.363 42.5611 167.889 51.1863 156.689 50.9969C152.528 50.996 148.493 49.5617 145.263 46.9348L144.763 49.76H135.496V0H146.391V15.2224C151.477 11.3649 159.223 11.032 164.974 13.4907C172.207 16.4686 176.336 23.756 176.257 31.468ZM165.361 31.4314C165.41 27.3692 163.227 23.585 159.455 22.0915C152.746 19.4801 145.787 24.0798 145.863 31.4314C145.772 38.8654 152.545 43.4896 159.384 40.8782C163.166 39.3633 165.41 35.5393 165.361 31.4314Z" fill="#F2F9FF"/>
<path d="M179.239 31.4678C179.166 23.7253 183.447 16.4439 190.699 13.5088C194.861 11.7068 201.085 11.3708 205.369 13.1545C207.129 13.8483 208.78 14.7937 210.27 15.9613L210.727 13.1362H220V49.7598H210.727L210.233 46.9712C208.735 48.1323 207.079 49.0715 205.314 49.7598C201.045 51.5373 194.892 51.1892 190.735 49.3902C183.49 46.4673 179.151 39.2226 179.239 31.4678ZM190.135 31.4312C190.086 35.5391 192.333 39.3722 196.111 40.878C198.546 41.8432 201.257 41.8432 203.692 40.878C207.501 39.3783 209.693 35.5422 209.635 31.4312C209.702 24.0735 202.771 19.486 196.041 22.0913C192.284 23.5848 190.089 27.369 190.135 31.4312Z" fill="#F2F9FF"/>
<path d="M16.7197 50.5451C26.3527 52.173 36.8456 48.4957 40.6359 39.1008C41.6541 36.6024 42.1631 33.9253 42.1332 31.2269V25.0848L16.7197 50.5451ZM0 1.73805V20.7997L11.1424 9.61803L19.0708 1.71973L0 1.73805Z" fill="#F2F9FF"/>
<path d="M42.133 1.73193V13.1243C32.4177 22.8552 17.8234 37.4759 8.11111 47.2007C5.73213 45.5814 3.76374 43.4279 2.36288 40.9117C0.962026 38.3956 0.167443 35.5864 0.0424805 32.7082L30.9021 1.79913L30.957 1.8541V1.73193H42.133Z" fill="#F2F9FF"/>
</svg>
