<svg width="46" height="52" viewBox="0 0 46 52" fill="none" xmlns="http://www.w3.org/2000/svg">
<g filter="url(#filter0_d_11_2)">
<path d="M33.0625 10.0625H38.8125V15.8125H33.0625V10.0625ZM33.0625 18.6875H38.8125V24.4375H33.0625V18.6875ZM24.4375 10.0625H30.1875V15.8125H24.4375V10.0625ZM24.4375 18.6875H30.1875V24.4375H24.4375V18.6875Z" fill="#F2994A"/>
<path d="M20.8438 37.375C22.0346 37.375 23 36.4096 23 35.2188C23 34.0279 22.0346 33.0625 20.8438 33.0625C19.6529 33.0625 18.6875 34.0279 18.6875 35.2188C18.6875 36.4096 19.6529 37.375 20.8438 37.375Z" fill="#071019"/>
<path d="M30.1875 43.125H11.5C10.7377 43.1242 10.0069 42.8211 9.46791 42.2821C8.92891 41.7431 8.62576 41.0123 8.625 40.25V5.75C8.62576 4.98774 8.92891 4.25691 9.46791 3.71791C10.0069 3.17891 10.7377 2.87576 11.5 2.875H30.1875V5.75H11.5V40.25H30.1875V28.75H33.0625V40.25C33.0617 41.0123 32.7586 41.7431 32.2196 42.2821C31.6806 42.8211 30.9498 43.1242 30.1875 43.125Z" fill="#071019"/>
</g>
<defs>
<filter id="filter0_d_11_2" x="-6" y="0" width="54" height="54" filterUnits="userSpaceOnUse" color-interpolation-filters="sRGB">
<feFlood flood-opacity="0" result="BackgroundImageFix"/>
<feColorMatrix in="SourceAlpha" type="matrix" values="0 0 0 0 0 0 0 0 0 0 0 0 0 0 0 0 0 0 127 0" result="hardAlpha"/>
<feOffset dx="-2" dy="4"/>
<feGaussianBlur stdDeviation="2"/>
<feComposite in2="hardAlpha" operator="out"/>
<feColorMatrix type="matrix" values="0 0 0 0 0 0 0 0 0 0 0 0 0 0 0 0 0 0 0.25 0"/>
<feBlend mode="normal" in2="BackgroundImageFix" result="effect1_dropShadow_11_2"/>
<feBlend mode="normal" in="SourceGraphic" in2="effect1_dropShadow_11_2" result="shape"/>
</filter>
</defs>
</svg>
