<svg width="50" height="52" viewBox="0 0 50 52" fill="none" xmlns="http://www.w3.org/2000/svg">
<g filter="url(#filter0_d_11_11)">
<path d="M44.25 24.4375V31.625H9.75V8.625H24.125V5.75H9.75C8.9875 5.75 8.25623 6.0529 7.71707 6.59207C7.1779 7.13123 6.875 7.8625 6.875 8.625V31.625C6.875 32.3875 7.1779 33.1188 7.71707 33.6579C8.25623 34.1971 8.9875 34.5 9.75 34.5H21.25V40.25H15.5V43.125H38.5V40.25H32.75V34.5H44.25C45.0125 34.5 45.7438 34.1971 46.2829 33.6579C46.8221 33.1188 47.125 32.3875 47.125 31.625V24.4375H44.25ZM29.875 40.25H24.125V34.5H29.875V40.25Z" fill="black"/>
<path d="M47.125 14.375V11.5H44.1048C43.9194 10.6002 43.5621 9.74454 43.0526 8.98006L45.1944 6.83819L43.1618 4.80556L41.0199 6.94744C40.2555 6.43786 39.3998 6.08058 38.5 5.89519V2.875H35.625V5.89519C34.7252 6.08058 33.8695 6.43786 33.1051 6.94744L30.9632 4.80556L28.9306 6.83819L31.0724 8.98006C30.5629 9.74454 30.2056 10.6002 30.0202 11.5H27V14.375H30.0202C30.2056 15.2748 30.5629 16.1305 31.0724 16.8949L28.9306 19.0368L30.9632 21.0694L33.1051 18.9276C33.8695 19.4371 34.7252 19.7944 35.625 19.9798V23H38.5V19.9798C39.3998 19.7944 40.2555 19.4371 41.0199 18.9276L43.1618 21.0694L45.1944 19.0368L43.0526 16.8949C43.5621 16.1305 43.9194 15.2748 44.1048 14.375H47.125ZM37.0625 17.25C36.2096 17.25 35.3758 16.9971 34.6666 16.5232C33.9574 16.0493 33.4047 15.3758 33.0783 14.5878C32.7519 13.7998 32.6665 12.9327 32.8329 12.0962C32.9993 11.2596 33.41 10.4912 34.0131 9.8881C34.6162 9.28499 35.3846 8.87426 36.2212 8.70786C37.0577 8.54146 37.9248 8.62687 38.7128 8.95327C39.5008 9.27967 40.1743 9.83242 40.6482 10.5416C41.1221 11.2508 41.375 12.0846 41.375 12.9375C41.3739 14.0809 40.9191 15.1771 40.1106 15.9856C39.3021 16.7941 38.2059 17.2489 37.0625 17.25Z" fill="#F2994A"/>
</g>
<defs>
<filter id="filter0_d_11_11" x="-2" y="0" width="54" height="54" filterUnits="userSpaceOnUse" color-interpolation-filters="sRGB">
<feFlood flood-opacity="0" result="BackgroundImageFix"/>
<feColorMatrix in="SourceAlpha" type="matrix" values="0 0 0 0 0 0 0 0 0 0 0 0 0 0 0 0 0 0 127 0" result="hardAlpha"/>
<feOffset dx="-2" dy="4"/>
<feGaussianBlur stdDeviation="2"/>
<feComposite in2="hardAlpha" operator="out"/>
<feColorMatrix type="matrix" values="0 0 0 0 0 0 0 0 0 0 0 0 0 0 0 0 0 0 0.25 0"/>
<feBlend mode="normal" in2="BackgroundImageFix" result="effect1_dropShadow_11_11"/>
<feBlend mode="normal" in="SourceGraphic" in2="effect1_dropShadow_11_11" result="shape"/>
</filter>
</defs>
</svg>
