<svg width="47" height="49" viewBox="0 0 47 49" fill="none" xmlns="http://www.w3.org/2000/svg">
<g filter="url(#filter0_d_11_9)">
<path fill-rule="evenodd" clip-rule="evenodd" d="M6.75 5.75H36.4583V10.5417H34.5417V7.66667H8.66667V29.7083H29.1625V31.625H6.75V5.75ZM35.5 18.2083C36.2625 18.2083 36.9938 17.9054 37.5329 17.3663C38.0721 16.8271 38.375 16.0958 38.375 15.3333C38.375 14.5708 38.0721 13.8396 37.5329 13.3004C36.9938 12.7612 36.2625 12.4583 35.5 12.4583C34.7375 12.4583 34.0062 12.7612 33.4671 13.3004C32.9279 13.8396 32.625 14.5708 32.625 15.3333C32.625 16.0958 32.9279 16.8271 33.4671 17.3663C34.0062 17.9054 34.7375 18.2083 35.5 18.2083ZM37.4464 20.1346C38.6912 20.1346 39.6764 20.6943 40.3214 21.5587C40.9242 22.3685 41.1791 23.3699 41.2366 24.2947C41.2929 25.2434 41.1637 26.1939 40.8561 27.093C40.5686 27.9268 40.0827 28.7893 39.3333 29.3806V38.8125C39.334 39.1737 39.1987 39.5219 38.9544 39.7878C38.71 40.0538 38.3745 40.218 38.0146 40.2479C37.6546 40.2777 37.2967 40.1709 37.0119 39.9488C36.727 39.7267 36.5363 39.4056 36.4775 39.0492L35.2412 31.625H34.9557L33.5584 39.077C33.4921 39.4287 33.2969 39.743 33.0111 39.9584C32.7253 40.1739 32.3694 40.2749 32.013 40.2419C31.6566 40.2088 31.3254 40.044 31.0841 39.7796C30.8428 39.5153 30.7088 39.1704 30.7083 38.8125V25.14C30.5167 25.4319 30.3276 25.7255 30.141 26.0207L30.0662 26.1385L30.0471 26.1692L30.0423 26.1778C29.9131 26.3852 29.7332 26.5563 29.5196 26.6748C29.306 26.7934 29.0657 26.8555 28.8214 26.8554H24.0297C23.6485 26.8554 23.2828 26.7039 23.0132 26.4343C22.7437 26.1648 22.5922 25.7991 22.5922 25.4179C22.5922 25.0366 22.7437 24.671 23.0132 24.4014C23.2828 24.1318 23.6485 23.9804 24.0297 23.9804H28.0327C28.2655 23.62 28.5722 23.1524 28.8942 22.6828C29.2296 22.1931 29.5995 21.6746 29.9292 21.2683C30.0892 21.0699 30.2685 20.8629 30.4486 20.6933C30.5368 20.6099 30.6595 20.5016 30.809 20.4058C31.0728 20.2326 31.3808 20.1388 31.6964 20.1355L37.4464 20.1346Z" fill="#0A1828"/>
</g>
<defs>
<filter id="filter0_d_11_9" x="0.75" y="5.75" width="42.4995" height="42.5028" filterUnits="userSpaceOnUse" color-interpolation-filters="sRGB">
<feFlood flood-opacity="0" result="BackgroundImageFix"/>
<feColorMatrix in="SourceAlpha" type="matrix" values="0 0 0 0 0 0 0 0 0 0 0 0 0 0 0 0 0 0 127 0" result="hardAlpha"/>
<feOffset dx="-2" dy="4"/>
<feGaussianBlur stdDeviation="2"/>
<feComposite in2="hardAlpha" operator="out"/>
<feColorMatrix type="matrix" values="0 0 0 0 0 0 0 0 0 0 0 0 0 0 0 0 0 0 0.25 0"/>
<feBlend mode="normal" in2="BackgroundImageFix" result="effect1_dropShadow_11_9"/>
<feBlend mode="normal" in="SourceGraphic" in2="effect1_dropShadow_11_9" result="shape"/>
</filter>
</defs>
</svg>
