<svg width="50" height="50" viewBox="0 0 50 50" fill="none" xmlns="http://www.w3.org/2000/svg">
<g filter="url(#filter0_d_11_16)">
<path d="M11.7937 3.45862L9.76969 5.47974L12.7812 8.48987L14.8024 6.46874L11.7922 3.45862H11.7937ZM38.2077 3.45862L35.1962 6.46874L37.2188 8.48987L40.2289 5.48118L38.2063 3.45862H38.2077ZM25 4.35562C24.5256 4.36137 24.0455 4.38868 23.5625 4.44762C23.5481 4.44762 23.5338 4.44474 23.5194 4.44762C17.6889 5.11606 13.0486 9.82674 12.2422 15.6314C11.5982 20.3032 13.5244 24.5396 16.7344 27.2679C18.0474 28.3885 18.9355 29.9262 19.25 31.6236V40.2486H22.5275C23.0278 41.1067 23.9406 41.6861 25 41.6861C26.0594 41.6861 26.9722 41.1067 27.4725 40.2486H30.75V34.4986H30.8851V32.7908C30.8851 30.6834 31.9805 28.5588 33.7601 26.9071C36.1406 24.5237 37.9375 21.1384 37.9375 17.25C37.9375 10.1487 32.0926 4.28949 25 4.35562ZM25 7.23062C30.5559 7.15299 35.0625 11.7012 35.0625 17.25C35.0625 20.2601 33.6681 22.9109 31.7376 24.84L31.7836 24.886C29.865 26.6551 28.6245 29.0386 28.2761 31.625H21.9884C21.6722 29.1611 20.6156 26.7763 18.6189 25.0657C16.0789 22.9094 14.5652 19.6607 15.0712 15.9922C15.6994 11.4641 19.3736 7.82287 23.8759 7.32406C24.2476 7.27223 24.6219 7.24152 24.9971 7.23206L25 7.23062ZM4.875 17.25V20.125H9.1875V17.25H4.875ZM40.8125 17.25V20.125H45.125V17.25H40.8125ZM12.7812 28.8851L9.77113 31.8938L11.7937 33.9164L14.8009 30.9062L12.7812 28.8851ZM37.2188 28.8851L35.1976 30.9062L38.2063 33.9164L40.2289 31.8938L37.2188 28.8851ZM22.125 34.5H27.875V37.375H22.125V34.5Z" fill="#F2994A"/>
</g>
<defs>
<filter id="filter0_d_11_16" x="-2" y="0" width="54" height="54" filterUnits="userSpaceOnUse" color-interpolation-filters="sRGB">
<feFlood flood-opacity="0" result="BackgroundImageFix"/>
<feColorMatrix in="SourceAlpha" type="matrix" values="0 0 0 0 0 0 0 0 0 0 0 0 0 0 0 0 0 0 127 0" result="hardAlpha"/>
<feOffset dy="4"/>
<feGaussianBlur stdDeviation="2"/>
<feComposite in2="hardAlpha" operator="out"/>
<feColorMatrix type="matrix" values="0 0 0 0 0 0 0 0 0 0 0 0 0 0 0 0 0 0 0.25 0"/>
<feBlend mode="normal" in2="BackgroundImageFix" result="effect1_dropShadow_11_16"/>
<feBlend mode="normal" in="SourceGraphic" in2="effect1_dropShadow_11_16" result="shape"/>
</filter>
</defs>
</svg>
