<svg width="24" height="24" viewBox="0 0 24 24" fill="none" xmlns="http://www.w3.org/2000/svg">
<g clip-path="url(#clip0_20_7)">
<path fill-rule="evenodd" clip-rule="evenodd" d="M7.2 1.60001C6.98783 1.60001 6.78434 1.68429 6.63432 1.83432C6.48429 1.98435 6.4 2.18783 6.4 2.40001C6.4 2.61218 6.48429 2.81566 6.63432 2.96569C6.78434 3.11572 6.98783 3.20001 7.2 3.20001H19.2V20.8H7.2C6.98783 20.8 6.78434 20.8843 6.63432 21.0343C6.48429 21.1844 6.4 21.3878 6.4 21.6C6.4 21.8122 6.48429 22.0157 6.63432 22.1657C6.78434 22.3157 6.98783 22.4 7.2 22.4H19.2C19.6243 22.4 20.0313 22.2314 20.3314 21.9314C20.6314 21.6313 20.8 21.2244 20.8 20.8V3.20001C20.8 2.77566 20.6314 2.36869 20.3314 2.06864C20.0313 1.76858 19.6243 1.60001 19.2 1.60001H7.2ZM10.5664 7.83361C10.492 7.75923 10.4037 7.70022 10.3065 7.65997C10.2094 7.61971 10.1052 7.599 10 7.599C9.89481 7.599 9.79065 7.61971 9.69347 7.65997C9.59628 7.70022 9.50798 7.75923 9.4336 7.83361C9.35922 7.90799 9.30022 7.99629 9.25996 8.09347C9.21971 8.19066 9.19899 8.29482 9.19899 8.40001C9.19899 8.5052 9.21971 8.60936 9.25996 8.70654C9.30022 8.80372 9.35922 8.89203 9.4336 8.96641L11.6688 11.2H0.8C0.587827 11.2 0.384344 11.2843 0.234315 11.4343C0.0842855 11.5844 0 11.7878 0 12C0 12.2122 0.0842855 12.4157 0.234315 12.5657C0.384344 12.7157 0.587827 12.8 0.8 12.8H11.6688L9.4336 15.0336C9.28338 15.1838 9.19899 15.3876 9.19899 15.6C9.19899 15.8124 9.28338 16.0162 9.4336 16.1664C9.58382 16.3166 9.78756 16.401 10 16.401C10.2124 16.401 10.4162 16.3166 10.5664 16.1664L14.1664 12.5664C14.2409 12.4921 14.3 12.4038 14.3403 12.3066C14.3807 12.2094 14.4014 12.1052 14.4014 12C14.4014 11.8948 14.3807 11.7906 14.3403 11.6934C14.3 11.5962 14.2409 11.5079 14.1664 11.4336L10.5664 7.83361Z" fill="#21507E"/>
</g>
<defs>
<clipPath id="clip0_20_7">
<rect width="24" height="24" fill="white"/>
</clipPath>
</defs>
</svg>
